<svg width="504" height="622" viewBox="0 0 504 622" fill="none" xmlns="http://www.w3.org/2000/svg">
<g opacity="0.15">
<path d="M92.329 38.0315V0.634407H412.791V38.0315H92.329Z" stroke="url(#paint0_linear)" stroke-width="1.26884"/>
<mask id="path-2-inside-1" fill="white">
<path d="M376.162 245.801L371.398 249.127L367.084 252.164L334.17 275.281L320.437 284.916L300.663 298.74L253.746 331.707L252.758 332.408L251.967 331.851L226.891 314.235L224.32 312.437V239.815L226.891 238.018L252.758 219.844L281.519 239.977L281.825 240.193L285.671 242.853L286.606 242.206L318.513 220.006L313.013 216.141L309.957 214.002L285.114 196.529L253.513 174.365L252.83 173.88L226.962 192.053L220.743 196.422L187.416 219.79L186.822 220.204V286.175L171.597 275.389L140.013 253.171L131.763 247.365L129.965 246.089L92.3237 219.484V508.805L131.87 536.524L134.279 538.213L167.678 561.582L171.435 564.44L173.466 565.86L187.506 575.729L219.323 598.073L227.052 603.465L252.722 621.441L252.919 621.585L253.297 621.316L286.696 597.857L291.621 594.388L320.383 574.147L338.358 561.564L371.739 538.088L376.162 534.996L402.029 516.822L413.425 508.823V219.736L376.162 245.801ZM375.784 489.247L374.076 490.452L369.169 493.921L338.898 515.204L320.472 528.147L305.499 538.663L253.764 575.01L252.866 575.639L252.164 575.154L226.998 557.465L200.43 538.807L187.452 529.693L167.013 515.312L132.194 490.847L131.727 490.524L129.929 489.247V292.017L131.727 293.311L138.917 298.29L155.832 310.19L156.641 310.766L172.316 321.767L186.858 331.977V456.477L187.524 456.945L219.125 479.145L227.07 484.717L232.984 488.87L247.689 499.206L247.994 499.637L252.38 502.711L252.937 503.107L253.692 502.567L272.837 489.139L286.876 478.983L295.864 472.53L296.223 472.26L316.734 457.43L315.889 456.783L315.745 456.675L285.671 433.486L284.161 434.709L279.146 438.609L254.124 456.244L252.973 457.053L251.877 456.28L249.864 454.824L226.98 438.645L224.41 436.848V358.419L226.98 360.217L252.542 378.193L253.045 377.851L286.624 354.483L309.256 338.736L312.437 336.507L320.455 330.898L333.667 321.605L367.084 298.236L375.802 292.089L375.784 489.247Z"/>
</mask>
<path d="M376.162 245.801L371.398 249.127L367.084 252.164L334.17 275.281L320.437 284.916L300.663 298.74L253.746 331.707L252.758 332.408L251.967 331.851L226.891 314.235L224.32 312.437V239.815L226.891 238.018L252.758 219.844L281.519 239.977L281.825 240.193L285.671 242.853L286.606 242.206L318.513 220.006L313.013 216.141L309.957 214.002L285.114 196.529L253.513 174.365L252.83 173.88L226.962 192.053L220.743 196.422L187.416 219.79L186.822 220.204V286.175L171.597 275.389L140.013 253.171L131.763 247.365L129.965 246.089L92.3237 219.484V508.805L131.87 536.524L134.279 538.213L167.678 561.582L171.435 564.44L173.466 565.86L187.506 575.729L219.323 598.073L227.052 603.465L252.722 621.441L252.919 621.585L253.297 621.316L286.696 597.857L291.621 594.388L320.383 574.147L338.358 561.564L371.739 538.088L376.162 534.996L402.029 516.822L413.425 508.823V219.736L376.162 245.801ZM375.784 489.247L374.076 490.452L369.169 493.921L338.898 515.204L320.472 528.147L305.499 538.663L253.764 575.01L252.866 575.639L252.164 575.154L226.998 557.465L200.43 538.807L187.452 529.693L167.013 515.312L132.194 490.847L131.727 490.524L129.929 489.247V292.017L131.727 293.311L138.917 298.29L155.832 310.19L156.641 310.766L172.316 321.767L186.858 331.977V456.477L187.524 456.945L219.125 479.145L227.07 484.717L232.984 488.87L247.689 499.206L247.994 499.637L252.38 502.711L252.937 503.107L253.692 502.567L272.837 489.139L286.876 478.983L295.864 472.53L296.223 472.26L316.734 457.43L315.889 456.783L315.745 456.675L285.671 433.486L284.161 434.709L279.146 438.609L254.124 456.244L252.973 457.053L251.877 456.28L249.864 454.824L226.98 438.645L224.41 436.848V358.419L226.98 360.217L252.542 378.193L253.045 377.851L286.624 354.483L309.256 338.736L312.437 336.507L320.455 330.898L333.667 321.605L367.084 298.236L375.802 292.089L375.784 489.247Z" stroke="url(#paint1_linear)" stroke-width="2.53769" mask="url(#path-2-inside-1)"/>
<path d="M36.9889 116.591V179.688L0.634422 154.172V78.7932H502.688V155.97L466.351 181.485V116.591V115.957H465.717H413.425H412.791V116.591V154.67L376.418 179.527V116.591V115.957H375.784H129.857H129.223V116.591V178.969L92.8682 154.113V116.591V115.957H92.2338H37.6233H36.9889V116.591Z" stroke="url(#paint2_linear)" stroke-width="1.26884"/>
</g>
<defs>
<linearGradient id="paint0_linear" x1="252.56" y1="-1.52588e-05" x2="252.56" y2="38.6659" gradientUnits="userSpaceOnUse">
<stop stop-color="#DF8877"/>
<stop offset="1" stop-color="#DF8877" stop-opacity="0"/>
</linearGradient>
<linearGradient id="paint1_linear" x1="252.875" y1="173.88" x2="252.875" y2="621.585" gradientUnits="userSpaceOnUse">
<stop stop-color="#DF8877"/>
<stop offset="1" stop-color="#DF8877" stop-opacity="0"/>
</linearGradient>
<linearGradient id="paint2_linear" x1="251.661" y1="78.1588" x2="251.661" y2="182.706" gradientUnits="userSpaceOnUse">
<stop stop-color="#DF8877"/>
<stop offset="1" stop-color="#DF8877" stop-opacity="0"/>
</linearGradient>
</defs>
</svg>
