<svg width="353" height="210" viewBox="0 0 353 210" fill="none" xmlns="http://www.w3.org/2000/svg">
<path d="M27.0012 151.338L14.1055 165.686L1.21334 151.338H0.188232V182.305H5.23191V163.44L14.1055 172.741L22.9862 163.426L22.9364 182.291H27.9801V151.324L27.0012 151.338Z" fill="#F2F2F2"/>
<path d="M27.9801 151.338V182.294H22.9364L22.9862 163.426L14.1055 172.741L5.23191 163.433V182.294H0.188232V151.338H1.21334L14.1055 165.697L27.0012 151.338H27.9801Z" fill="#F2F2F2"/>
<path d="M36.5831 151.829V182.294H41.5378V151.829H36.5831Z" fill="#F2F2F2"/>
<path d="M41.5378 151.829H36.5831V182.294H41.5378V151.829Z" fill="#F2F2F2"/>
<path d="M76.1352 177.372C79.9901 172.826 80.8515 165.693 78.2282 160.027C75.7615 154.688 70.7107 151.651 64.3679 151.651C59.6196 151.651 55.6366 153.307 52.8603 156.435C50.3302 159.375 48.9652 163.139 49.0233 167.017C49.0233 174.417 53.8249 182.383 64.3679 182.383C67.2723 182.383 69.7497 181.842 71.9387 180.721L72.4406 180.468L74.1527 182.472H79.4099L75.7615 177.817L76.1352 177.372ZM73.0172 172.698L72.4904 173.62L69.8209 170.203H64.1258L69.1517 176.364L68.2405 176.72C67.0025 177.183 65.6893 177.411 64.3679 177.393C57.7758 177.393 54.3232 172.189 54.3232 167.046C54.3232 161.903 57.7758 156.702 64.3679 156.702C68.1479 156.702 71.209 158.382 72.9781 161.433C73.9379 163.154 74.4451 165.09 74.4519 167.06C74.4588 169.031 73.9651 170.971 73.0172 172.698Z" fill="#F2F2F2"/>
<path d="M76.1352 177.372C79.9901 172.826 80.8515 165.693 78.2282 160.027C75.7615 154.688 70.7107 151.651 64.3679 151.651C59.6196 151.651 55.6366 153.307 52.8603 156.435C50.3302 159.375 48.9652 163.139 49.0233 167.017C49.0233 174.417 53.8249 182.383 64.3679 182.383C67.2723 182.383 69.7497 181.842 71.9387 180.721L72.4406 180.468L74.1527 182.472H79.4099L75.7615 177.817L76.1352 177.372ZM73.0172 172.698L72.4904 173.62L69.8209 170.203H64.1258L69.1517 176.364L68.2405 176.72C67.0025 177.183 65.6893 177.411 64.3679 177.393C57.7758 177.393 54.3232 172.189 54.3232 167.046C54.3232 161.903 57.7758 156.702 64.3679 156.702C68.1479 156.702 71.209 158.382 72.9781 161.433C73.9379 163.154 74.4451 165.09 74.4519 167.06C74.4588 169.031 73.9651 170.971 73.0172 172.698Z" fill="#F2F2F2"/>
<path d="M104.123 151.829V171.858C104.123 175.617 101.161 177.585 98.2356 177.585C95.3097 177.585 92.3519 175.617 92.3519 171.858V151.829H87.3936V171.901C87.3936 179.226 92.9997 182.579 98.2106 182.579C103.422 182.579 109.028 179.244 109.028 171.901V151.829H104.123Z" fill="#F2F2F2"/>
<path d="M109.013 151.829V171.901C109.013 179.226 103.407 182.579 98.1964 182.579C92.9854 182.579 87.3936 179.212 87.3936 171.901V151.829H92.3483V171.858C92.3483 175.617 95.3097 177.585 98.232 177.585C101.154 177.585 104.123 175.617 104.123 171.858V151.829H109.013Z" fill="#F2F2F2"/>
<path d="M124.244 144.515L122.664 148.22H127.01L130.107 144.515H124.244ZM122.436 177.34V169.537H130.818V164.586H122.436V156.788H132.025V151.829H117.485V182.294H132.562V177.34H122.436Z" fill="#F2F2F2"/>
<path d="M124.244 144.515L122.664 148.22H127.01L130.107 144.515H124.244ZM122.436 177.34V169.537H130.818V164.586H122.436V156.788H132.025V151.829H117.485V182.294H132.562V177.34H122.436Z" fill="#F2F2F2"/>
<path d="M139.251 151.118V183.006H145.626V151.118H139.251Z" fill="#F2F2F2"/>
<path d="M144.917 151.829H139.962V182.294H144.917V151.829Z" fill="#F2F2F2"/>
<path d="M163.711 151.025L151.007 182.294H156.677L157.927 178.86H169.488L170.783 182.294H176.414L163.711 151.025ZM159.731 174.307L163.743 163.173L167.637 174.307H159.731Z" fill="#F2F2F2"/>
<path d="M163.711 151.025L151.007 182.294H156.677L157.927 178.86H169.488L170.783 182.294H176.414L163.711 151.025ZM159.731 174.307L163.743 163.173L167.637 174.307H159.731Z" fill="#F2F2F2"/>
<path d="M190.709 164.501C188.833 163.86 186.883 162.906 186.662 160.671C186.595 160.127 186.644 159.575 186.807 159.052C186.969 158.529 187.242 158.046 187.605 157.636C187.969 157.227 188.416 156.899 188.916 156.675C189.416 156.452 189.958 156.337 190.506 156.339C190.684 156.339 190.898 156.321 191.147 156.321C192.967 156.364 194.766 156.725 196.461 157.389L197.07 152.712C194.016 151.701 192.218 151.566 190.979 151.566C190.577 151.566 190.218 151.566 189.947 151.598C185.042 151.844 181.615 155.553 181.615 160.61C181.615 165.668 186.16 168.039 190.595 169.662C192.375 170.281 194.201 171.228 194.368 173.517C194.414 173.958 194.368 174.403 194.235 174.825C194.101 175.248 193.883 175.638 193.592 175.973C193.192 176.426 192.706 176.795 192.162 177.059C191.618 177.323 191.028 177.477 190.424 177.51C190.129 177.535 189.794 177.55 189.449 177.55C186.771 177.544 184.142 176.828 181.832 175.475L181.223 180.536C183.849 181.832 186.728 182.532 189.655 182.586C189.951 182.586 190.228 182.586 190.499 182.558C195.859 182.277 199.458 178.674 199.458 173.588C199.458 169.651 196.593 166.676 190.709 164.501Z" fill="#F2F2F2"/>
<path d="M199.458 173.595C199.458 178.682 195.859 182.284 190.499 182.565C190.228 182.583 189.951 182.593 189.655 182.593C186.728 182.539 183.849 181.839 181.223 180.543L181.832 175.482C184.142 176.835 186.771 177.551 189.449 177.557C189.805 177.557 190.129 177.557 190.424 177.518C191.028 177.484 191.618 177.33 192.162 177.066C192.706 176.802 193.192 176.433 193.592 175.98C193.883 175.646 194.101 175.255 194.235 174.833C194.368 174.41 194.414 173.965 194.368 173.524C194.201 171.235 192.364 170.288 190.595 169.669C186.16 168.046 181.615 165.697 181.615 160.618C181.615 155.538 185.042 151.851 189.947 151.605C190.218 151.605 190.577 151.573 190.979 151.573C192.218 151.573 194.016 151.708 197.07 152.719L196.461 157.396C194.766 156.732 192.967 156.371 191.147 156.328C190.898 156.328 190.684 156.328 190.506 156.346C189.958 156.344 189.416 156.459 188.916 156.682C188.416 156.906 187.969 157.234 187.605 157.644C187.242 158.053 186.969 158.536 186.807 159.059C186.644 159.582 186.595 160.134 186.662 160.678C186.883 162.913 188.833 163.882 190.709 164.508C196.593 166.676 199.458 169.651 199.458 173.595Z" fill="#F2F2F2"/>
<path d="M238.522 176.208C236.754 176.929 234.862 177.299 232.952 177.297C226.267 177.297 222.772 172.047 222.772 166.861C222.772 161.675 226.267 156.432 232.952 156.432C234.653 156.394 236.341 156.741 237.889 157.446L238.469 152.42C236.708 151.748 234.837 151.413 232.952 151.434C222.306 151.434 217.454 159.464 217.454 166.925C217.395 170.829 218.772 174.619 221.323 177.575C224.132 180.725 228.15 182.39 232.952 182.39C235.072 182.359 237.173 181.992 239.177 181.301L238.522 176.208Z" fill="#F2F2F2"/>
<path d="M239.177 181.294C237.173 181.985 235.072 182.352 232.952 182.383C228.15 182.383 224.132 180.718 221.323 177.567C218.772 174.612 217.395 170.822 217.454 166.918C217.454 159.443 222.306 151.427 232.952 151.427C234.837 151.406 236.708 151.741 238.469 152.413L237.889 157.439C236.34 156.736 234.652 156.392 232.952 156.432C226.267 156.432 222.772 161.682 222.772 166.868C222.772 172.054 226.267 177.304 232.952 177.304C234.862 177.306 236.754 176.936 238.522 176.215L239.177 181.294Z" fill="#F2F2F2"/>
<path d="M260.381 151.292C255.508 151.292 251.422 152.986 248.571 156.19C246.033 159.037 244.655 162.885 244.655 167.017C244.655 174.592 249.581 182.739 260.399 182.739C265.275 182.739 269.361 181.049 272.212 177.842C274.75 174.994 276.145 171.15 276.145 167.017C276.124 159.443 271.198 151.292 260.381 151.292ZM268.094 174.229C266.215 176.407 263.549 177.557 260.377 177.557C253.614 177.557 250.101 172.239 250.101 166.989C250.101 161.739 253.618 156.432 260.381 156.432C267.144 156.432 270.66 161.749 270.66 167.003C270.696 169.641 269.786 172.204 268.094 174.229Z" fill="#F2F2F2"/>
<path d="M260.381 151.292C255.508 151.292 251.422 152.986 248.571 156.19C246.033 159.037 244.655 162.885 244.655 167.017C244.655 174.592 249.581 182.739 260.399 182.739C265.275 182.739 269.361 181.049 272.212 177.842C274.75 174.994 276.145 171.15 276.145 167.017C276.124 159.443 271.198 151.292 260.381 151.292ZM268.094 174.229C266.215 176.407 263.549 177.557 260.377 177.557C253.614 177.557 250.101 172.239 250.101 166.989C250.101 161.739 253.618 156.432 260.381 156.432C267.144 156.432 270.66 161.749 270.66 167.003C270.696 169.641 269.786 172.204 268.094 174.229Z" fill="#F2F2F2"/>
<path d="M291.59 164.501C289.714 163.86 287.763 162.906 287.542 160.671C287.475 160.127 287.525 159.575 287.687 159.052C287.85 158.529 288.122 158.046 288.486 157.636C288.849 157.227 289.296 156.899 289.796 156.675C290.297 156.452 290.839 156.337 291.387 156.339C291.565 156.339 291.778 156.321 292.027 156.321C293.848 156.364 295.646 156.725 297.342 157.389L297.95 152.712C294.896 151.701 293.099 151.566 291.86 151.566C291.458 151.566 291.098 151.566 290.828 151.598C285.923 151.844 282.495 155.553 282.495 160.61C282.495 165.668 287.041 168.039 291.476 169.662C293.255 170.281 295.081 171.228 295.249 173.517C295.294 173.958 295.249 174.403 295.116 174.825C294.982 175.248 294.763 175.638 294.473 175.973C294.073 176.426 293.587 176.795 293.043 177.059C292.499 177.323 291.908 177.477 291.305 177.51C291.013 177.535 290.675 177.55 290.329 177.55C287.652 177.544 285.023 176.828 282.712 175.475L282.093 180.543C284.719 181.839 287.598 182.539 290.525 182.593C290.821 182.593 291.102 182.593 291.369 182.565C296.729 182.284 300.328 178.682 300.328 173.595C300.339 169.651 297.473 166.676 291.59 164.501Z" fill="#F2F2F2"/>
<path d="M300.339 173.595C300.339 178.682 296.74 182.284 291.38 182.565C291.113 182.583 290.831 182.593 290.536 182.593C287.605 182.54 284.722 181.84 282.093 180.543L282.702 175.482C285.012 176.835 287.641 177.551 290.319 177.557C290.675 177.557 291.002 177.557 291.294 177.518C291.898 177.484 292.488 177.33 293.032 177.066C293.576 176.802 294.062 176.433 294.462 175.98C294.758 175.647 294.982 175.256 295.12 174.832C295.257 174.408 295.306 173.96 295.263 173.517C295.096 171.228 293.262 170.281 291.49 169.662C287.055 168.039 282.509 165.69 282.509 160.61C282.509 155.531 285.937 151.844 290.842 151.598C291.113 151.598 291.472 151.566 291.874 151.566C293.113 151.566 294.91 151.701 297.964 152.712L297.356 157.389C295.66 156.725 293.862 156.364 292.042 156.321C291.792 156.321 291.579 156.321 291.401 156.339C290.853 156.337 290.311 156.452 289.811 156.675C289.311 156.899 288.864 157.227 288.5 157.636C288.136 158.046 287.864 158.529 287.701 159.052C287.539 159.575 287.489 160.127 287.557 160.671C287.777 162.906 289.728 163.874 291.604 164.501C297.473 166.676 300.339 169.651 300.339 173.595Z" fill="#F2F2F2"/>
<path d="M304.439 151.872V156.788H312.376V182.298H317.331V156.788H325.272V151.876L304.439 151.872Z" fill="#F2F2F2"/>
<path d="M325.272 151.872V156.784H317.331V182.294H312.376V156.784H304.439V151.872H325.272Z" fill="#F2F2F2"/>
<path d="M338.894 151.025L326.191 182.294H331.861L333.11 178.86H344.671L345.967 182.294H351.598L338.894 151.025ZM334.915 174.307L338.926 163.173L342.817 174.307H334.915Z" fill="#F2F2F2"/>
<path d="M338.894 151.025L326.191 182.294H331.861L333.11 178.86H344.671L345.967 182.294H351.598L338.894 151.025ZM334.915 174.307L338.926 163.173L342.817 174.307H334.915Z" fill="#F2F2F2"/>
<path d="M5.27111 202.846C3.28496 201.932 1.53017 201.017 1.53017 198.696C1.53017 197.098 2.85427 195.112 5.46688 195.112C6.22301 195.118 6.96722 195.301 7.64019 195.646C8.31315 195.991 8.89627 196.488 9.34307 197.098L8.11507 198.095C7.8107 197.672 7.41406 197.324 6.95522 197.077C6.49639 196.83 5.98741 196.691 5.46688 196.671C3.96481 196.671 3.1675 197.739 3.1675 198.696C3.1675 200.081 4.33498 200.625 6.20723 201.483C8.29304 202.437 9.59578 203.316 9.59578 205.519C9.59578 207.723 7.76625 209.221 5.36721 209.221C4.44446 209.22 3.54199 208.95 2.77016 208.445C1.99832 207.939 1.39056 207.219 1.02118 206.374L2.38799 205.551C2.38799 205.551 3.20665 207.659 5.36721 207.659C6.67351 207.659 7.92286 206.918 7.92286 205.523C7.92286 204.128 6.79097 203.551 5.27111 202.846Z" fill="#F2F2F2"/>
<path d="M24.8335 202.166C24.8335 206.103 22.0287 209.221 18.092 209.221C14.1553 209.221 11.3505 206.103 11.3505 202.166C11.3505 198.23 14.1553 195.112 18.092 195.112C22.0287 195.112 24.8335 198.23 24.8335 202.166ZM23.0823 202.166C23.0823 199.262 21.0748 196.671 18.0992 196.671C15.1235 196.671 13.116 199.262 13.116 202.166C13.116 205.071 15.1199 207.662 18.0992 207.662C21.0784 207.662 23.0823 205.071 23.0823 202.166Z" fill="#F2F2F2"/>
<path d="M36.8181 198.269C36.3407 197.75 35.7582 197.339 35.1094 197.064C34.4606 196.788 33.7605 196.654 33.0558 196.671C30.0944 196.671 28.0726 199.262 28.0726 202.167C28.0726 205.071 30.0979 207.662 33.0558 207.662C33.8016 207.649 34.5366 207.481 35.2143 207.17C35.8919 206.858 36.4974 206.409 36.9925 205.851L38.103 206.979C37.4602 207.678 36.6805 208.239 35.8123 208.624C34.9441 209.01 34.0058 209.213 33.0558 209.221C29.1404 209.221 26.3143 206.103 26.3143 202.167C26.3143 198.23 29.1226 195.112 33.0558 195.112C33.972 195.099 34.8808 195.277 35.7237 195.637C36.5666 195.996 37.325 196.528 37.95 197.198L36.8181 198.269Z" fill="#F2F2F2"/>
<path d="M40.3632 195.347H42.0005V208.986H40.3632V195.347Z" fill="#F2F2F2"/>
<path d="M47.1047 201.213H52.8674V202.772H47.1047V207.427H53.4583V208.986H45.4674V195.347H53.3408V196.906H47.1047V201.213Z" fill="#F2F2F2"/>
<path d="M66.7277 202.166C66.7277 206.103 64.2148 208.986 59.9862 208.986H56.0709V195.347H59.9862C64.2148 195.347 66.7277 198.23 66.7277 202.166ZM64.9729 202.166C64.9729 199.262 63.2217 196.906 59.8865 196.906H57.7046V207.427H59.8865C63.2217 207.427 64.9694 205.071 64.9694 202.166H64.9729Z" fill="#F2F2F2"/>
<path d="M72.7681 195.347H74.2879L79.6092 208.986H77.8936L76.4698 205.302H70.5861L69.1624 208.986H67.4076L72.7681 195.347ZM71.1912 203.743H75.8647L73.5298 197.692L71.1912 203.743Z" fill="#F2F2F2"/>
<path d="M92.0209 202.166C92.0209 206.103 89.5079 208.986 85.2794 208.986H81.364V195.347H85.2794C89.5079 195.347 92.0209 198.23 92.0209 202.166ZM90.2661 202.166C90.2661 199.262 88.5113 196.906 85.1797 196.906H82.9978V207.427H85.1797C88.5113 207.427 90.2661 205.071 90.2661 202.166Z" fill="#F2F2F2"/>
<path d="M95.9932 201.213H101.763V202.772H95.9932V207.427H102.343V208.986H94.3558V195.347H102.229V196.906H95.9932V201.213Z" fill="#F2F2F2"/>
<path d="M110.686 195.347H112.309V208.986H110.672L110.686 195.347Z" fill="#F2F2F2"/>
<path d="M117.485 195.347L124.796 206.263V195.347H126.43V208.986H124.735L117.428 198.077V208.99H115.791V195.347H117.485Z" fill="#F2F2F2"/>
<path d="M140.286 202.166C140.286 206.103 137.77 208.986 133.523 208.986H129.608V195.347H133.523C137.77 195.347 140.286 198.23 140.286 202.166ZM138.532 202.166C138.532 199.262 136.777 196.906 133.445 196.906H131.263V207.427H133.445C136.777 207.427 138.532 205.071 138.532 202.166Z" fill="#F2F2F2"/>
<path d="M142.895 195.347H144.533V208.986H142.895V195.347Z" fill="#F2F2F2"/>
<path d="M152.175 209.374L146.48 195.347H148.259L152.196 205.341L156.151 195.347H157.87L152.175 209.374Z" fill="#F2F2F2"/>
<path d="M159.81 195.347H161.429V208.986H159.795L159.81 195.347Z" fill="#F2F2F2"/>
<path d="M175.571 202.166C175.571 206.103 173.058 208.986 168.829 208.986H164.914V195.347H168.829C173.058 195.347 175.571 198.23 175.571 202.166ZM173.82 202.166C173.82 199.262 172.065 196.906 168.733 196.906H166.551V207.427H168.733C172.065 207.427 173.82 205.071 173.82 202.166Z" fill="#F2F2F2"/>
<path d="M186.21 195.347H187.847V203.96C187.847 207.057 185.996 209.221 182.864 209.221C179.732 209.221 177.881 207.057 177.881 203.96V195.347H179.518V203.772C179.518 205.975 180.493 207.652 182.85 207.652C185.206 207.652 186.181 205.975 186.181 203.772L186.21 195.347Z" fill="#F2F2F2"/>
<path d="M194.959 195.347H196.479L201.8 208.986H200.084L198.661 205.302H192.777L191.353 208.986H189.602L194.959 195.347ZM193.382 203.743H198.059L195.721 197.692L193.382 203.743Z" fill="#F2F2F2"/>
<path d="M203.551 195.347H205.189V207.427H211.307V208.986H203.551V195.347Z" fill="#F2F2F2"/>
<path d="M229.175 202.166C229.175 206.103 226.662 208.986 222.434 208.986H218.519V195.347H222.434C226.662 195.347 229.175 198.23 229.175 202.166ZM227.424 202.166C227.424 199.262 225.669 196.906 222.338 196.906H220.159V207.427H222.345C225.669 207.427 227.424 205.071 227.424 202.166Z" fill="#F2F2F2"/>
<path d="M233.151 201.213H238.917V202.772H233.151V207.427H239.505V208.986H231.514V195.347H239.38V196.906H233.151V201.213Z" fill="#F2F2F2"/>
<path d="M251.482 195.347H253.002L258.341 208.986H256.626L255.202 205.302H249.304L247.88 208.986H246.143L251.482 195.347ZM249.905 203.743H254.582L252.244 197.692L249.905 203.743Z" fill="#F2F2F2"/>
<path d="M270.739 202.166C270.739 206.103 268.226 208.986 263.997 208.986H260.082V195.347H263.997C268.211 195.347 270.739 198.23 270.739 202.166ZM268.984 202.166C268.984 199.262 267.233 196.906 263.897 196.906H261.715V207.427H263.897C267.233 207.427 268.984 205.071 268.984 202.166Z" fill="#F2F2F2"/>
<path d="M276.818 209.374L271.123 195.347H272.903L276.839 205.341L280.794 195.347H282.492L276.818 209.374Z" fill="#F2F2F2"/>
<path d="M296.38 202.166C296.38 206.103 293.576 209.221 289.639 209.221C285.702 209.221 282.897 206.103 282.897 202.166C282.897 198.23 285.702 195.112 289.639 195.112C293.576 195.112 296.38 198.23 296.38 202.166ZM294.629 202.166C294.629 199.262 292.622 196.671 289.646 196.671C286.67 196.671 284.663 199.262 284.663 202.166C284.663 205.071 286.667 207.662 289.646 207.662C292.625 207.662 294.629 205.071 294.629 202.166Z" fill="#F2F2F2"/>
<path d="M308.365 198.269C307.888 197.75 307.305 197.339 306.656 197.064C306.008 196.788 305.307 196.654 304.603 196.671C301.641 196.671 299.62 199.262 299.62 202.166C299.62 205.071 301.645 207.662 304.603 207.662C305.349 207.649 306.084 207.481 306.761 207.169C307.439 206.858 308.044 206.409 308.539 205.85L309.65 206.979C309.007 207.678 308.227 208.239 307.359 208.624C306.491 209.01 305.553 209.213 304.603 209.221C300.687 209.221 297.861 206.103 297.861 202.166C297.861 198.23 300.67 195.112 304.603 195.112C305.519 195.098 306.429 195.277 307.273 195.636C308.116 195.995 308.875 196.527 309.5 197.198L308.365 198.269Z" fill="#F2F2F2"/>
<path d="M315.552 195.347H317.071L322.41 208.986H320.695L319.271 205.302H313.373L311.949 208.986H310.212L315.552 195.347ZM313.971 203.743H318.648L316.31 197.692L313.971 203.743Z" fill="#F2F2F2"/>
<path d="M333.58 198.269C333.103 197.75 332.52 197.339 331.871 197.064C331.222 196.788 330.522 196.654 329.818 196.671C326.856 196.671 324.834 199.262 324.834 202.166C324.834 205.071 326.86 207.662 329.818 207.662C330.563 207.649 331.298 207.481 331.976 207.169C332.654 206.858 333.259 206.408 333.754 205.85L334.865 206.979C334.222 207.678 333.442 208.239 332.574 208.624C331.706 209.01 330.768 209.213 329.818 209.221C325.881 209.221 323.076 206.103 323.076 202.166C323.076 198.23 325.881 195.112 329.818 195.112C330.733 195.098 331.642 195.277 332.484 195.636C333.326 195.995 334.084 196.527 334.708 197.198L333.58 198.269Z" fill="#F2F2F2"/>
<path d="M337.125 195.347H338.762V208.986H337.125V195.347Z" fill="#F2F2F2"/>
<path d="M346.162 195.347H347.682L353 208.986H351.288L349.864 205.302H343.963L342.539 208.986H340.788L346.162 195.347ZM344.582 203.743H349.259L346.92 197.692L344.582 203.743Z" fill="#F2F2F2"/>
<path d="M207.922 0.885742H144.216V8.54202H207.922V0.885742Z" fill="#F2F2F2"/>
<path d="M200.544 49.557L199.6 50.2155L198.746 50.8171L192.229 55.3945L189.509 57.3023L185.594 60.0395L176.304 66.5674L176.108 66.7062L175.952 66.5959L170.986 63.1077L170.477 62.7517V48.3718L170.986 48.0158L176.108 44.4173L181.803 48.4038L181.864 48.4465L182.626 48.9733L182.811 48.8452L189.129 44.4493L188.039 43.684L187.434 43.2604L182.515 39.8007L176.258 35.412L176.122 35.3159L171.001 38.9144L169.769 39.7793L163.17 44.4066L163.052 44.4884V57.5515L160.038 55.4158L153.784 51.0164L152.15 49.8667L151.794 49.614L144.341 44.3461V101.635L152.171 107.123L152.648 107.458L159.262 112.085L160.006 112.651L160.408 112.932L163.188 114.886L169.488 119.311L171.018 120.378L176.101 123.938L176.14 123.966L176.215 123.913L182.828 119.268L183.804 118.581L189.499 114.573L193.058 112.082L199.668 107.433L200.544 106.821L205.666 103.222L207.922 101.638V44.3959L200.544 49.557ZM200.469 97.762L200.131 98.0005L199.159 98.6875L193.165 102.902L189.517 105.465L186.552 107.547L176.308 114.744L176.13 114.869L175.991 114.772L171.008 111.27L165.747 107.575L163.177 105.771L159.13 102.923L152.235 98.0788L152.143 98.0148L151.787 97.762V58.7083L152.143 58.9645L153.567 59.9505L156.916 62.3068L157.076 62.4207L160.18 64.5991L163.059 66.6208V91.2732L163.191 91.3658L169.449 95.7616L171.022 96.8651L172.193 97.6873L175.105 99.7339L175.165 99.8194L176.034 100.428L176.144 100.506L176.293 100.4L180.084 97.7407L182.864 95.7296L184.644 94.4518L184.715 94.3984L188.776 91.4619L188.609 91.3338L188.58 91.3124L182.626 86.7208L182.327 86.9628L181.333 87.7352L176.379 91.227L176.151 91.3871L175.934 91.2341L175.535 90.9458L171.004 87.7423L170.495 87.3864V71.8567L171.004 72.2126L176.066 75.772L176.165 75.7044L182.814 71.0772L187.295 67.9592L187.925 67.5178L189.513 66.4073L192.129 64.567L198.746 59.9398L200.472 58.7225L200.469 97.762Z" fill="#F2F2F2"/>
<path d="M225.723 16.362V31.8348L218.276 37.0635V23.972H207.922V31.5785L200.469 36.672V23.972H151.773V36.5616L144.323 31.4681V23.972H133.509V36.7076L126.059 31.4788V16.362H225.723Z" fill="#F2F2F2"/>
</svg>
