<svg width="353" height="210" fill="none" xmlns="http://www.w3.org/2000/svg"><path d="M27.001 151.338l-12.896 14.348-12.892-14.348H.188v30.967h5.044V163.44l8.873 9.301 8.881-9.315-.05 18.865h5.044v-30.967l-.979.014z" fill="#F2F2F2"/><path d="M27.98 151.338v30.956h-5.044l.05-18.868-8.88 9.315-8.874-9.308v18.861H.188v-30.956h1.025l12.892 14.359 12.896-14.359h.98zM36.583 151.829v30.465h4.955v-30.465h-4.955z" fill="#F2F2F2"/><path d="M41.538 151.829h-4.955v30.465h4.955v-30.465zM76.135 177.372c3.855-4.546 4.716-11.679 2.093-17.345-2.466-5.339-7.517-8.376-13.86-8.376-4.748 0-8.731 1.656-11.508 4.784a15.858 15.858 0 00-3.837 10.582c0 7.4 4.802 15.366 15.345 15.366 2.904 0 5.382-.541 7.57-1.662l.503-.253 1.712 2.004h5.257l-3.648-4.655.373-.445zm-3.118-4.674l-.527.922-2.67-3.417h-5.694l5.026 6.161-.912.356a10.641 10.641 0 01-3.872.673c-6.592 0-10.045-5.204-10.045-10.347s3.453-10.344 10.045-10.344c3.78 0 6.841 1.68 8.61 4.731a11.635 11.635 0 01.04 11.265z" fill="#F2F2F2"/><path d="M76.135 177.372c3.855-4.546 4.716-11.679 2.093-17.345-2.466-5.339-7.517-8.376-13.86-8.376-4.748 0-8.731 1.656-11.508 4.784a15.858 15.858 0 00-3.837 10.582c0 7.4 4.802 15.366 15.345 15.366 2.904 0 5.382-.541 7.57-1.662l.503-.253 1.712 2.004h5.257l-3.648-4.655.373-.445zm-3.118-4.674l-.527.922-2.67-3.417h-5.694l5.026 6.161-.912.356a10.641 10.641 0 01-3.872.673c-6.592 0-10.045-5.204-10.045-10.347s3.453-10.344 10.045-10.344c3.78 0 6.841 1.68 8.61 4.731a11.635 11.635 0 01.04 11.265zM104.123 151.829v20.029c0 3.759-2.962 5.727-5.887 5.727-2.926 0-5.884-1.968-5.884-5.727v-20.029h-4.958v20.072c0 7.325 5.606 10.678 10.817 10.678s10.817-3.335 10.817-10.678v-20.072h-4.905z" fill="#F2F2F2"/><path d="M109.013 151.829v20.072c0 7.325-5.606 10.678-10.817 10.678-5.21 0-10.802-3.367-10.802-10.678v-20.072h4.954v20.029c0 3.759 2.962 5.727 5.884 5.727s5.891-1.968 5.891-5.727v-20.029h4.89zM124.244 144.515l-1.58 3.705h4.346l3.097-3.705h-5.863zm-1.808 32.825v-7.803h8.382v-4.951h-8.382v-7.798h9.589v-4.959h-14.54v30.465h15.077v-4.954h-10.126z" fill="#F2F2F2"/><path d="M124.244 144.515l-1.58 3.705h4.346l3.097-3.705h-5.863zm-1.808 32.825v-7.803h8.382v-4.951h-8.382v-7.798h9.589v-4.959h-14.54v30.465h15.077v-4.954h-10.126zM139.251 151.118v31.888h6.375v-31.888h-6.375z" fill="#F2F2F2"/><path d="M144.917 151.829h-4.955v30.465h4.955v-30.465zM163.711 151.025l-12.704 31.269h5.67l1.25-3.434h11.561l1.295 3.434h5.631l-12.703-31.269zm-3.98 23.282l4.012-11.134 3.894 11.134h-7.906z" fill="#F2F2F2"/><path d="M163.711 151.025l-12.704 31.269h5.67l1.25-3.434h11.561l1.295 3.434h5.631l-12.703-31.269zm-3.98 23.282l4.012-11.134 3.894 11.134h-7.906zM190.709 164.501c-1.876-.641-3.826-1.595-4.047-3.83a3.857 3.857 0 013.844-4.332c.178 0 .392-.018.641-.018 1.82.043 3.619.404 5.314 1.068l.609-4.677c-3.054-1.011-4.852-1.146-6.091-1.146-.402 0-.761 0-1.032.032-4.905.246-8.332 3.955-8.332 9.012 0 5.058 4.545 7.429 8.98 9.052 1.78.619 3.606 1.566 3.773 3.855a3.235 3.235 0 01-.776 2.456 4.568 4.568 0 01-3.168 1.537c-.295.025-.63.04-.975.04a15.14 15.14 0 01-7.617-2.075l-.609 5.061a19.88 19.88 0 008.432 2.05c.296 0 .573 0 .844-.028 5.36-.281 8.959-3.884 8.959-8.97 0-3.937-2.865-6.912-8.749-9.087z" fill="#F2F2F2"/><path d="M199.458 173.595c0 5.087-3.599 8.689-8.959 8.97-.271.018-.548.028-.844.028a19.88 19.88 0 01-8.432-2.05l.609-5.061a15.14 15.14 0 007.617 2.075c.356 0 .68 0 .975-.039a4.567 4.567 0 003.168-1.538 3.236 3.236 0 00.776-2.456c-.167-2.289-2.004-3.236-3.773-3.855-4.435-1.623-8.98-3.972-8.98-9.051 0-5.08 3.427-8.767 8.332-9.013.271 0 .63-.032 1.032-.032 1.239 0 3.037.135 6.091 1.146l-.609 4.677a15.579 15.579 0 00-5.314-1.068c-.249 0-.463 0-.641.018a3.87 3.87 0 00-2.901 1.298 3.85 3.85 0 00-.943 3.034c.221 2.235 2.171 3.204 4.047 3.83 5.884 2.168 8.749 5.143 8.749 9.087zM238.522 176.208a14.71 14.71 0 01-5.57 1.089c-6.685 0-10.18-5.25-10.18-10.436s3.495-10.429 10.18-10.429a11.304 11.304 0 014.937 1.014l.58-5.026a15.004 15.004 0 00-5.517-.986c-10.646 0-15.498 8.03-15.498 15.491a15.933 15.933 0 003.869 10.65c2.809 3.15 6.827 4.815 11.629 4.815a19.991 19.991 0 006.225-1.089l-.655-5.093z" fill="#F2F2F2"/><path d="M239.177 181.294a19.991 19.991 0 01-6.225 1.089c-4.802 0-8.82-1.665-11.629-4.816a15.929 15.929 0 01-3.869-10.649c0-7.475 4.852-15.491 15.498-15.491a15.004 15.004 0 015.517.986l-.58 5.026a11.304 11.304 0 00-4.937-1.007c-6.685 0-10.18 5.25-10.18 10.436s3.495 10.436 10.18 10.436a14.71 14.71 0 005.57-1.089l.655 5.079zM260.381 151.292c-4.873 0-8.959 1.694-11.81 4.898-2.538 2.847-3.916 6.695-3.916 10.827 0 7.575 4.926 15.722 15.744 15.722 4.876 0 8.962-1.69 11.813-4.897 2.538-2.848 3.933-6.692 3.933-10.825-.021-7.574-4.947-15.725-15.764-15.725zm7.713 22.937c-1.879 2.178-4.545 3.328-7.717 3.328-6.763 0-10.276-5.318-10.276-10.568s3.517-10.557 10.28-10.557 10.279 5.317 10.279 10.571a11.034 11.034 0 01-2.566 7.226z" fill="#F2F2F2"/><path d="M260.381 151.292c-4.873 0-8.959 1.694-11.81 4.898-2.538 2.847-3.916 6.695-3.916 10.827 0 7.575 4.926 15.722 15.744 15.722 4.876 0 8.962-1.69 11.813-4.897 2.538-2.848 3.933-6.692 3.933-10.825-.021-7.574-4.947-15.725-15.764-15.725zm7.713 22.937c-1.879 2.178-4.545 3.328-7.717 3.328-6.763 0-10.276-5.318-10.276-10.568s3.517-10.557 10.28-10.557 10.279 5.317 10.279 10.571a11.034 11.034 0 01-2.566 7.226zM291.59 164.501c-1.876-.641-3.827-1.595-4.048-3.83a3.873 3.873 0 01.944-3.035 3.865 3.865 0 012.901-1.297c.178 0 .391-.018.64-.018 1.821.043 3.619.404 5.315 1.068l.608-4.677c-3.054-1.011-4.851-1.146-6.09-1.146-.402 0-.762 0-1.032.032-4.905.246-8.333 3.955-8.333 9.012 0 5.058 4.546 7.429 8.981 9.052 1.779.619 3.605 1.566 3.773 3.855.045.441 0 .886-.133 1.308a3.256 3.256 0 01-.643 1.148 4.568 4.568 0 01-3.168 1.537c-.292.025-.63.04-.976.04a15.145 15.145 0 01-7.617-2.075l-.619 5.068a19.88 19.88 0 008.432 2.05c.296 0 .577 0 .844-.028 5.36-.281 8.959-3.883 8.959-8.97.011-3.944-2.855-6.919-8.738-9.094z" fill="#F2F2F2"/><path d="M300.339 173.595c0 5.087-3.599 8.689-8.959 8.97a12.56 12.56 0 01-.844.028 19.896 19.896 0 01-8.443-2.05l.609-5.061a15.14 15.14 0 007.617 2.075c.356 0 .683 0 .975-.039a4.567 4.567 0 003.168-1.538 3.235 3.235 0 00.801-2.463c-.167-2.289-2.001-3.236-3.773-3.855-4.435-1.623-8.981-3.972-8.981-9.052 0-5.079 3.428-8.766 8.333-9.012.271 0 .63-.032 1.032-.032 1.239 0 3.036.135 6.09 1.146l-.608 4.677a15.583 15.583 0 00-5.314-1.068c-.25 0-.463 0-.641.018a3.87 3.87 0 00-2.901 1.297 3.865 3.865 0 00-.943 3.035c.22 2.235 2.171 3.203 4.047 3.83 5.869 2.175 8.735 5.15 8.735 9.094zM304.439 151.872v4.916h7.937v25.51h4.955v-25.51h7.941v-4.912l-20.833-.004z" fill="#F2F2F2"/><path d="M325.272 151.872v4.912h-7.941v25.51h-4.955v-25.51h-7.937v-4.912h20.833zM338.894 151.025l-12.703 31.269h5.67l1.249-3.434h11.561l1.296 3.434h5.631l-12.704-31.269zm-3.979 23.282l4.011-11.134 3.891 11.134h-7.902z" fill="#F2F2F2"/><path d="M338.894 151.025l-12.703 31.269h5.67l1.249-3.434h11.561l1.296 3.434h5.631l-12.704-31.269zm-3.979 23.282l4.011-11.134 3.891 11.134h-7.902zM5.271 202.846c-1.986-.914-3.74-1.829-3.74-4.15 0-1.598 1.323-3.584 3.936-3.584a4.848 4.848 0 013.876 1.986l-1.228.997a3.434 3.434 0 00-2.648-1.424c-1.502 0-2.3 1.068-2.3 2.025 0 1.385 1.168 1.929 3.04 2.787 2.086.954 3.389 1.833 3.389 4.036 0 2.204-1.83 3.702-4.229 3.702a4.753 4.753 0 01-4.346-2.847l1.367-.823s.819 2.108 2.98 2.108c1.306 0 2.555-.741 2.555-2.136s-1.132-1.972-2.652-2.677zM24.834 202.166c0 3.937-2.805 7.055-6.742 7.055s-6.741-3.118-6.741-7.055c0-3.936 2.804-7.054 6.741-7.054s6.742 3.118 6.742 7.054zm-1.752 0c0-2.904-2.007-5.495-4.983-5.495-2.976 0-4.983 2.591-4.983 5.495 0 2.905 2.004 5.496 4.983 5.496 2.98 0 4.983-2.591 4.983-5.496zM36.818 198.269a4.943 4.943 0 00-3.762-1.598c-2.962 0-4.983 2.591-4.983 5.496 0 2.904 2.025 5.495 4.983 5.495a5.392 5.392 0 003.937-1.811l1.11 1.128a6.931 6.931 0 01-5.047 2.242c-3.916 0-6.742-3.118-6.742-7.054 0-3.937 2.809-7.055 6.742-7.055a6.554 6.554 0 014.894 2.086l-1.132 1.071zM40.363 195.347h1.638v13.639h-1.638v-13.639zM47.105 201.213h5.762v1.559h-5.762v4.655h6.353v1.559h-7.99v-13.639h7.873v1.559h-6.236v4.307zM66.728 202.166c0 3.937-2.513 6.82-6.742 6.82h-3.915v-13.639h3.915c4.229 0 6.742 2.883 6.742 6.819zm-1.755 0c0-2.904-1.751-5.26-5.087-5.26h-2.181v10.521h2.181c3.336 0 5.083-2.356 5.083-5.261h.004zM72.768 195.347h1.52l5.321 13.639h-1.715l-1.424-3.684h-5.884l-1.424 3.684h-1.754l5.36-13.639zm-1.577 8.396h4.674l-2.335-6.051-2.339 6.051zM92.02 202.166c0 3.937-2.512 6.82-6.74 6.82h-3.916v-13.639h3.915c4.229 0 6.742 2.883 6.742 6.819zm-1.754 0c0-2.904-1.755-5.26-5.086-5.26h-2.182v10.521h2.182c3.331 0 5.086-2.356 5.086-5.261zM95.993 201.213h5.77v1.559h-5.77v4.655h6.35v1.559h-7.987v-13.639h7.873v1.559h-6.236v4.307zM110.686 195.347h1.623v13.639h-1.637l.014-13.639zM117.485 195.347l7.311 10.916v-10.916h1.634v13.639h-1.695l-7.307-10.909v10.913h-1.637v-13.643h1.694zM140.286 202.166c0 3.937-2.516 6.82-6.763 6.82h-3.915v-13.639h3.915c4.247 0 6.763 2.883 6.763 6.819zm-1.754 0c0-2.904-1.755-5.26-5.087-5.26h-2.182v10.521h2.182c3.332 0 5.087-2.356 5.087-5.261zM142.895 195.347h1.638v13.639h-1.638v-13.639zM152.175 209.374l-5.695-14.027h1.779l3.937 9.994 3.955-9.994h1.719l-5.695 14.027zM159.81 195.347h1.619v13.639h-1.634l.015-13.639zM175.571 202.166c0 3.937-2.513 6.82-6.742 6.82h-3.915v-13.639h3.915c4.229 0 6.742 2.883 6.742 6.819zm-1.751 0c0-2.904-1.755-5.26-5.087-5.26h-2.182v10.521h2.182c3.332 0 5.087-2.356 5.087-5.261zM186.21 195.347h1.637v8.613c0 3.097-1.851 5.261-4.983 5.261-3.132 0-4.983-2.164-4.983-5.261v-8.613h1.637v8.425c0 2.203.975 3.88 3.332 3.88 2.356 0 3.331-1.677 3.331-3.88l.029-8.425zM194.959 195.347h1.52l5.321 13.639h-1.716l-1.423-3.684h-5.884l-1.424 3.684h-1.751l5.357-13.639zm-1.577 8.396h4.677l-2.338-6.051-2.339 6.051zM203.551 195.347h1.638v12.08h6.118v1.559h-7.756v-13.639zM229.175 202.166c0 3.937-2.513 6.82-6.741 6.82h-3.915v-13.639h3.915c4.228 0 6.741 2.883 6.741 6.819zm-1.751 0c0-2.904-1.755-5.26-5.086-5.26h-2.179v10.521h2.186c3.324 0 5.079-2.356 5.079-5.261zM233.151 201.213h5.766v1.559h-5.766v4.655h6.354v1.559h-7.991v-13.639h7.866v1.559h-6.229v4.307zM251.482 195.347h1.52l5.339 13.639h-1.715l-1.424-3.684h-5.898l-1.424 3.684h-1.737l5.339-13.639zm-1.577 8.396h4.677l-2.338-6.051-2.339 6.051zM270.739 202.166c0 3.937-2.513 6.82-6.742 6.82h-3.915v-13.639h3.915c4.214 0 6.742 2.883 6.742 6.819zm-1.755 0c0-2.904-1.751-5.26-5.087-5.26h-2.182v10.521h2.182c3.336 0 5.087-2.356 5.087-5.261zM276.818 209.374l-5.695-14.027h1.78l3.936 9.994 3.955-9.994h1.698l-5.674 14.027zM296.38 202.166c0 3.937-2.804 7.055-6.741 7.055s-6.742-3.118-6.742-7.055c0-3.936 2.805-7.054 6.742-7.054s6.741 3.118 6.741 7.054zm-1.751 0c0-2.904-2.007-5.495-4.983-5.495-2.976 0-4.983 2.591-4.983 5.495 0 2.905 2.004 5.496 4.983 5.496 2.979 0 4.983-2.591 4.983-5.496zM308.365 198.269a4.938 4.938 0 00-1.709-1.205 4.938 4.938 0 00-2.053-.393c-2.962 0-4.983 2.591-4.983 5.495 0 2.905 2.025 5.496 4.983 5.496a5.38 5.38 0 003.936-1.812l1.111 1.129a6.937 6.937 0 01-5.047 2.242c-3.916 0-6.742-3.118-6.742-7.055 0-3.936 2.809-7.054 6.742-7.054a6.567 6.567 0 014.897 2.086l-1.135 1.071zM315.552 195.347h1.519l5.339 13.639h-1.715l-1.424-3.684h-5.898l-1.424 3.684h-1.737l5.34-13.639zm-1.581 8.396h4.677l-2.338-6.051-2.339 6.051zM333.58 198.269a4.938 4.938 0 00-1.709-1.205 4.941 4.941 0 00-2.053-.393c-2.962 0-4.984 2.591-4.984 5.495 0 2.905 2.026 5.496 4.984 5.496a5.388 5.388 0 003.936-1.812l1.111 1.129a6.937 6.937 0 01-5.047 2.242c-3.937 0-6.742-3.118-6.742-7.055 0-3.936 2.805-7.054 6.742-7.054a6.546 6.546 0 014.89 2.086l-1.128 1.071zM337.125 195.347h1.637v13.639h-1.637v-13.639zM346.162 195.347h1.52L353 208.986h-1.712l-1.424-3.684h-5.901l-1.424 3.684h-1.751l5.374-13.639zm-1.58 8.396h4.677l-2.339-6.051-2.338 6.051zM207.922.886h-63.706v7.656h63.706V.886zM200.544 49.557l-.944.658-.854.602-6.517 4.578-2.72 1.907-3.915 2.737-9.29 6.528-.196.14-.156-.111-4.966-3.488-.509-.356v-14.38l.509-.356 5.122-3.599 5.695 3.987.061.042.762.527.185-.128 6.318-4.396-1.09-.765-.605-.424-4.919-3.46-6.257-4.388-.136-.096-5.121 3.598-1.232.865-6.599 4.628-.118.081v13.063l-3.014-2.135-6.254-4.4-1.634-1.15-.356-.252-7.453-5.268v57.289l7.83 5.488.477.335 6.614 4.627.744.566.402.281 2.78 1.954 6.3 4.425 1.53 1.067 5.083 3.56.039.028.075-.053 6.613-4.645.976-.687 5.695-4.008 3.559-2.491 6.61-4.649.876-.612 5.122-3.599 2.256-1.584V44.396l-7.378 5.161zm-.075 48.205l-.338.239-.972.686-5.994 4.215-3.648 2.563-2.965 2.082-10.244 7.197-.178.125-.139-.097-4.983-3.502-5.261-3.695-2.57-1.804-4.047-2.848-6.895-4.844-.092-.064-.356-.253V58.708l.356.257 1.424.985 3.349 2.357.16.114 3.104 2.178 2.879 2.022v24.652l.132.093 6.258 4.396 1.573 1.103 1.171.822 2.912 2.047.06.085.869.609.11.078.149-.106 3.791-2.66 2.78-2.01 1.78-1.278.071-.054 4.061-2.936-.167-.128-.029-.022-5.954-4.591-.299.242-.994.772-4.954 3.492-.228.16-.217-.153-.399-.288-4.531-3.204-.509-.356v-15.53l.509.357 5.062 3.559.099-.068 6.649-4.627 4.481-3.118.63-.441 1.588-1.11 2.616-1.841 6.617-4.627 1.726-1.218-.003 39.04z" fill="#F2F2F2"/><path d="M225.723 16.362v15.473l-7.447 5.228V23.972h-10.354v7.606l-7.453 5.094v-12.7h-48.696v12.59l-7.45-5.094v-7.496h-10.814v12.736l-7.45-5.23V16.363h99.664z" fill="#F2F2F2"/></svg>