<svg width="504" height="622" fill="none" xmlns="http://www.w3.org/2000/svg"><g opacity=".15"><path d="M92.329 38.032V.633h320.462v37.398H92.329z" stroke="url(#paint0_linear)" stroke-width="1.269"/><mask id="a" fill="#fff"><path d="M376.162 245.801l-4.764 3.326-4.314 3.037-32.914 23.117-13.733 9.635-19.774 13.824-46.917 32.967-.988.701-.791-.557-25.076-17.616-2.571-1.798v-72.622l2.571-1.797 25.867-18.174 28.761 20.133.306.216 3.846 2.66.935-.647 31.907-22.2-5.5-3.865-3.056-2.139-24.843-17.473-31.601-22.164-.683-.485-25.868 18.173-6.219 4.369-33.327 23.368-.594.414v65.971l-15.225-10.786-31.584-22.218-8.25-5.806-1.798-1.276-37.641-26.605v289.321l39.546 27.719 2.409 1.689 33.399 23.369 3.757 2.858 2.031 1.42 14.04 9.869 31.817 22.344 7.729 5.392 25.67 17.976.197.144.378-.269 33.399-23.459 4.925-3.469 28.762-20.241 17.975-12.583 33.381-23.476 4.423-3.092 25.867-18.174 11.396-7.999V219.736l-37.263 26.065zm-.378 243.446l-1.708 1.205-4.907 3.469-30.271 21.283-18.426 12.943-14.973 10.516-51.735 36.347-.898.629-.702-.485-25.166-17.689-26.568-18.658-12.978-9.114-20.439-14.381-34.819-24.465-.467-.323-1.798-1.277v-197.23l1.798 1.294 7.19 4.979 16.915 11.9.809.576 15.675 11.001 14.542 10.21v124.5l.666.468 31.601 22.2 7.945 5.572 5.914 4.153 14.705 10.336.305.431 4.386 3.074.557.396.755-.54 19.145-13.428 14.039-10.156 8.988-6.453.359-.27 20.511-14.83-.845-.647-.144-.108-30.074-23.189-1.51 1.223-5.015 3.9-25.022 17.635-1.151.809-1.096-.773-2.013-1.456-22.884-16.179-2.57-1.797v-78.429l2.57 1.798 25.562 17.976.503-.342 33.579-23.368 22.632-15.747 3.181-2.229 8.018-5.609 13.212-9.293 33.417-23.369 8.718-6.147-.018 197.158z"/></mask><path d="M376.162 245.801l-4.764 3.326-4.314 3.037-32.914 23.117-13.733 9.635-19.774 13.824-46.917 32.967-.988.701-.791-.557-25.076-17.616-2.571-1.798v-72.622l2.571-1.797 25.867-18.174 28.761 20.133.306.216 3.846 2.66.935-.647 31.907-22.2-5.5-3.865-3.056-2.139-24.843-17.473-31.601-22.164-.683-.485-25.868 18.173-6.219 4.369-33.327 23.368-.594.414v65.971l-15.225-10.786-31.584-22.218-8.25-5.806-1.798-1.276-37.641-26.605v289.321l39.546 27.719 2.409 1.689 33.399 23.369 3.757 2.858 2.031 1.42 14.04 9.869 31.817 22.344 7.729 5.392 25.67 17.976.197.144.378-.269 33.399-23.459 4.925-3.469 28.762-20.241 17.975-12.583 33.381-23.476 4.423-3.092 25.867-18.174 11.396-7.999V219.736l-37.263 26.065zm-.378 243.446l-1.708 1.205-4.907 3.469-30.271 21.283-18.426 12.943-14.973 10.516-51.735 36.347-.898.629-.702-.485-25.166-17.689-26.568-18.658-12.978-9.114-20.439-14.381-34.819-24.465-.467-.323-1.798-1.277v-197.23l1.798 1.294 7.19 4.979 16.915 11.9.809.576 15.675 11.001 14.542 10.21v124.5l.666.468 31.601 22.2 7.945 5.572 5.914 4.153 14.705 10.336.305.431 4.386 3.074.557.396.755-.54 19.145-13.428 14.039-10.156 8.988-6.453.359-.27 20.511-14.83-.845-.647-.144-.108-30.074-23.189-1.51 1.223-5.015 3.9-25.022 17.635-1.151.809-1.096-.773-2.013-1.456-22.884-16.179-2.57-1.797v-78.429l2.57 1.798 25.562 17.976.503-.342 33.579-23.368 22.632-15.747 3.181-2.229 8.018-5.609 13.212-9.293 33.417-23.369 8.718-6.147-.018 197.158z" stroke="url(#paint1_linear)" stroke-width="2.538" mask="url(#a)"/><path d="M36.989 116.591v63.097L.634 154.172V78.793h502.054v77.177l-36.337 25.515v-65.528h-53.56v38.713l-36.373 24.857v-63.57H129.223v63.012l-36.355-24.856v-38.156H36.99v.634z" stroke="url(#paint2_linear)" stroke-width="1.269"/></g><defs><linearGradient id="paint0_linear" x1="252.56" y1="0" x2="252.56" y2="38.666" gradientUnits="userSpaceOnUse"><stop stop-color="#DF8877"/><stop offset="1" stop-color="#DF8877" stop-opacity="0"/></linearGradient><linearGradient id="paint1_linear" x1="252.875" y1="173.88" x2="252.875" y2="621.585" gradientUnits="userSpaceOnUse"><stop stop-color="#DF8877"/><stop offset="1" stop-color="#DF8877" stop-opacity="0"/></linearGradient><linearGradient id="paint2_linear" x1="251.661" y1="78.159" x2="251.661" y2="182.706" gradientUnits="userSpaceOnUse"><stop stop-color="#DF8877"/><stop offset="1" stop-color="#DF8877" stop-opacity="0"/></linearGradient></defs></svg>